<?xml version="1.0" encoding="utf-8" standalone="yes"?>
<!DOCTYPE svg PUBLIC "-//W3C//DTD SVG 1.1//EN" "http://www.w3.org/Graphics/SVG/1.1/DTD/svg11.dtd">
<svg width="950" height="578" viewBox="0 0 950 578" style="fill:none;stroke:none;fill-rule:evenodd;clip-rule:evenodd;stroke-linecap:round;stroke-linejoin:round;stroke-miterlimit:1.5;" version="1.1" xmlns="http://www.w3.org/2000/svg" xmlns:xlink="http://www.w3.org/1999/xlink"><style class="text-font-style fontImports" data-font-family="Roboto">@import url('https://fonts.googleapis.com/css2?family=Roboto:wght@400;700&amp;display=block');</style><g id="items" style="isolation: isolate"><g id="blend" style="mix-blend-mode: normal"><g id="g-root-ro_4o75cq1pj8jq-fill" data-item-order="-21600" transform="translate(375, 141)"><g id="ro_4o75cq1pj8jq-fill" stroke="none" fill="#545454"><g><path d="M 34 10L 130 10C 130 10 154 10 154 34L 154 136C 154 136 154 160 130 160L 34 160C 34 160 10 160 10 136L 10 34C 10 34 10 10 34 10"></path></g></g></g><g id="g-root-ro_qsrsuy1z8zr9-fill" data-item-order="-16848" transform="translate(15, 129)"><g id="ro_qsrsuy1z8zr9-fill" stroke="none" fill="#3e4e69"><g><path d="M 22 10L 310 10C 310 10 322 10 322 22L 322 52C 322 52 322 64 310 64L 22 64C 22 64 10 64 10 52L 10 22C 10 22 10 10 22 10"></path></g></g></g><g id="g-root-ro_59ja21phs79-fill" data-item-order="-12312" transform="translate(567, 123)"><g id="ro_59ja21phs79-fill" stroke="none" fill="#60436d"><g><path d="M 22 10L 226 10C 226 10 238 10 238 22L 238 52C 238 52 238 64 226 64L 22 64C 22 64 10 64 10 52L 10 22C 10 22 10 10 22 10"></path></g></g></g><g id="g-root-ro_1cws9ga1pgemb-fill" data-item-order="-11016" transform="translate(345, 333)"><g id="ro_1cws9ga1pgemb-fill" stroke="none" fill="#54502f"><g><path d="M 22 10L 202 10C 202 10 214 10 214 22L 214 52C 214 52 214 64 202 64L 22 64C 22 64 10 64 10 52L 10 22C 10 22 10 10 22 10"></path></g></g></g><g id="g-root-tx_institut_zqy0uy1pgcga-fill" data-item-order="0" transform="translate(393, 399)"><g id="tx_institut_zqy0uy1pgcga-fill" stroke="none" fill="#f4f4f4"><g><text style="font: 20px Roboto, sans-serif; white-space: pre;" font-size="20px" font-family="Roboto, sans-serif"><tspan x="13.25" y="34" dominant-baseline="ideographic">Institut Supérieur de l'Électronique </tspan><tspan x="91.02" y="58" dominant-baseline="ideographic">et du Numérique</tspan></text></g></g></g><g id="g-root-tx_2021_1upb84a1pgef9-fill" data-item-order="0" transform="translate(219, 231)"><g id="tx_2021_1upb84a1pgef9-fill" stroke="none" fill="#f4f4f4"><g><text style="font: 20px Roboto, sans-serif; white-space: pre;" font-size="20px" font-family="Roboto, sans-serif"><tspan x="17.52" y="34" dominant-baseline="ideographic">2021</tspan></text></g></g></g><g id="g-root-cu_1q5pk2i1zacy4-fill" data-item-order="0" transform="translate(285, 183)"></g><g id="g-root-cu_vagq8q1z8xza-fill" data-item-order="0" transform="translate(327, 156)"></g><g id="g-root-tx_cotonoub_1qbd5961pgdfy-fill" data-item-order="0" transform="translate(135, 267)"><g id="tx_cotonoub_1qbd5961pgdfy-fill" stroke="none" fill="#f4f4f4"><g><text style="font: 20px Roboto, sans-serif; white-space: pre;" font-size="20px" font-family="Roboto, sans-serif"><tspan x="14.71" y="34" dominant-baseline="ideographic">Cotonou, Bénin</tspan></text></g></g></g><g id="g-root-cu_djt6u21z8x6p-fill" data-item-order="0" transform="translate(519, 150)"></g><g id="g-root-tx_parcours_3cvru1zadj8-fill" data-item-order="0" transform="translate(225, 39)"><g id="tx_parcours_3cvru1zadj8-fill" stroke="none" fill="#f4f4f4"><g><text style="font: 25px Roboto, sans-serif; white-space: pre;" font-size="25px" font-family="Roboto, sans-serif"><tspan x="13.17" y="43" dominant-baseline="ideographic">Parcours Éducatif: Diplômes et Institutions</tspan></text></g></g></g><g id="g-root-tx_20212023_qtflcq1pgf0g-fill" data-item-order="0" transform="translate(615, 249)"><g id="tx_20212023_qtflcq1pgf0g-fill" stroke="none" fill="#f4f4f4"><g><text style="font: 20px Roboto, sans-serif; white-space: pre;" font-size="20px" font-family="Roboto, sans-serif"><tspan x="17.31" y="34" dominant-baseline="ideographic">2021 - 2023</tspan></text></g></g></g><g id="g-root-cu_1qdtq6y1z8zdb-fill" data-item-order="0" transform="translate(285, 183)"></g><g id="g-root-cu_i0vn4q1z8ykq-fill" data-item-order="0" transform="translate(285, 183)"></g><g id="g-root-tx_lillefra_94nh7e1pgcgc-fill" data-item-order="0" transform="translate(393, 495)"><g id="tx_lillefra_94nh7e1pgcgc-fill" stroke="none" fill="#f4f4f4"><g><text style="font: 20px Roboto, sans-serif; white-space: pre;" font-size="20px" font-family="Roboto, sans-serif"><tspan x="17.47" y="34" dominant-baseline="ideographic">Lille, France</tspan></text></g></g></g><g id="g-root-tx_depuis20_mfhihm1pge17-fill" data-item-order="0" transform="translate(393, 459)"><g id="tx_depuis20_mfhihm1pge17-fill" stroke="none" fill="#f4f4f4"><g><text style="font: 20px Roboto, sans-serif; white-space: pre;" font-size="20px" font-family="Roboto, sans-serif"><tspan x="14.45" y="34" dominant-baseline="ideographic">Depuis 2023</tspan></text></g></g></g><g id="g-root-cu_v5gxju1zacqt-fill" data-item-order="0" transform="translate(369, 387)"></g><g id="g-root-cu_1cu91p61zaej2-fill" data-item-order="0" transform="translate(591, 177)"></g><g id="g-root-cu_13z8ije1zacxt-fill" data-item-order="0" transform="translate(591, 177)"></g><g id="g-root-cu_qns0621zaeir-fill" data-item-order="0" transform="translate(591, 177)"></g><g id="g-root-tx_complexe_qqb7x61pgdu4-fill" data-item-order="0" transform="translate(15, 195)"><g id="tx_complexe_qqb7x61pgdu4-fill" stroke="none" fill="#f4f4f4"><g><text style="font: 20px Roboto, sans-serif; white-space: pre;" font-size="20px" font-family="Roboto, sans-serif"><tspan x="12.3" y="34" dominant-baseline="ideographic">Complexe Scolaire Le Rocher</tspan></text></g></g></g><g id="g-root-cu_8cogq1z8yro-fill" data-item-order="0" transform="translate(447, 291)"></g><g id="g-root-cu_hu0f6i1zaebs-fill" data-item-order="0" transform="translate(369, 387)"></g><g id="g-root-tx_courprpa_zp2llm1pgdfz-fill" data-item-order="0" transform="translate(615, 189)"><g id="tx_courprpa_zp2llm1pgdfz-fill" stroke="none" fill="#f4f4f4"><g><text style="font: 20px Roboto, sans-serif; white-space: pre;" font-size="20px" font-family="Roboto, sans-serif"><tspan x="16.02" y="34" dominant-baseline="ideographic">Cour Préparatoire Sainte Marie - </tspan><tspan x="132.7" y="58" dominant-baseline="ideographic">Stella</tspan></text></g></g></g><g id="g-root-tx_cotonoub_1d1s2561pge15-fill" data-item-order="0" transform="translate(615, 285)"><g id="tx_cotonoub_1d1s2561pge15-fill" stroke="none" fill="#f4f4f4"><g><text style="font: 20px Roboto, sans-serif; white-space: pre;" font-size="20px" font-family="Roboto, sans-serif"><tspan x="14.71" y="34" dominant-baseline="ideographic">Cotonou, Bénin</tspan></text></g></g></g><g id="g-root-cu_dete561zabya-fill" data-item-order="0" transform="translate(369, 387)"></g><g id="g-root-exch_18i7mca1phszw-fill" data-item-order="1000000000" transform="translate(579, 135)"></g><g id="g-root-tx_cycleprp_deume21phrm3-fill" data-item-order="1000000000" transform="translate(615, 138)"><g id="tx_cycleprp_deume21phrm3-fill" stroke="none" fill="#cb68f9"><g><text style="font: 20px Roboto, sans-serif; white-space: pre;" font-size="20px" font-family="Roboto, sans-serif"><tspan x="12.87" y="34" dominant-baseline="ideographic">Cycle Préparatoire</tspan></text></g></g></g><g id="g-root-trai_hznnq21pj6yt-fill" data-item-order="1000000000" transform="translate(423, 165)"></g><g id="g-root-tx_parcours_qtf8pm1pj75w-fill" data-item-order="1000000000" transform="translate(399, 219)"><g id="tx_parcours_qtf8pm1pj75w-fill" stroke="none" fill="#b7b7b7"><g><text style="font: 20px Roboto, sans-serif; white-space: pre;" font-size="20px" font-family="Roboto, sans-serif"><tspan x="15.53" y="34" dominant-baseline="ideographic">Parcours </tspan><tspan x="18.92" y="58" dominant-baseline="ideographic">Éducatif</tspan></text></g></g></g><g id="g-root-tx_baccalau_1luvumy1z8yyz-fill" data-item-order="1000000000" transform="translate(27, 144)"><g id="tx_baccalau_1luvumy1z8yyz-fill" stroke="none" fill="#4f91fc"><g><text style="font: 20px Roboto, sans-serif; white-space: pre;" font-size="20px" font-family="Roboto, sans-serif"><tspan x="14.03" y="34" dominant-baseline="ideographic">Baccalauréat Scientifique D</tspan></text></g></g></g><g id="g-root-4_1unfsuy1pgfey-fill" data-item-order="1000000000" transform="translate(357, 345)"></g><g id="g-root-tx_cycleing_18fpt5m1pgd8h-fill" data-item-order="1000000000" transform="translate(393, 348)"><g id="tx_cycleing_18fpt5m1pgd8h-fill" stroke="none" fill="#ffe711"><g><text style="font: 20px Roboto, sans-serif; white-space: pre;" font-size="20px" font-family="Roboto, sans-serif"><tspan x="14.05" y="34" dominant-baseline="ideographic">Cycle Ingénieur</tspan></text></g></g></g><g id="g-root-acad_1448b8a1z8y6c-fill" data-item-order="1000000000" transform="translate(285, 141)"></g><g id="g-root-ro_4o75cq1pj8jq-stroke" data-item-order="-21600" transform="translate(375, 141)"><g id="ro_4o75cq1pj8jq-stroke" fill="none" stroke-linecap="round" stroke-linejoin="round" stroke-miterlimit="4" stroke="#f4f4f4" stroke-width="2"><g><path d="M 34 10L 130 10C 130 10 154 10 154 34L 154 136C 154 136 154 160 130 160L 34 160C 34 160 10 160 10 136L 10 34C 10 34 10 10 34 10"></path></g></g></g><g id="g-root-ro_qsrsuy1z8zr9-stroke" data-item-order="-16848" transform="translate(15, 129)"><g id="ro_qsrsuy1z8zr9-stroke" fill="none" stroke-linecap="round" stroke-linejoin="round" stroke-miterlimit="4" stroke="#4f91fc" stroke-width="2"><g><path d="M 22 10L 310 10C 310 10 322 10 322 22L 322 52C 322 52 322 64 310 64L 22 64C 22 64 10 64 10 52L 10 22C 10 22 10 10 22 10"></path></g></g></g><g id="g-root-ro_59ja21phs79-stroke" data-item-order="-12312" transform="translate(567, 123)"><g id="ro_59ja21phs79-stroke" fill="none" stroke-linecap="round" stroke-linejoin="round" stroke-miterlimit="4" stroke="#cb68f9" stroke-width="2"><g><path d="M 22 10L 226 10C 226 10 238 10 238 22L 238 52C 238 52 238 64 226 64L 22 64C 22 64 10 64 10 52L 10 22C 10 22 10 10 22 10"></path></g></g></g><g id="g-root-ro_1cws9ga1pgemb-stroke" data-item-order="-11016" transform="translate(345, 333)"><g id="ro_1cws9ga1pgemb-stroke" fill="none" stroke-linecap="round" stroke-linejoin="round" stroke-miterlimit="4" stroke="#ffe711" stroke-width="2"><g><path d="M 22 10L 202 10C 202 10 214 10 214 22L 214 52C 214 52 214 64 202 64L 22 64C 22 64 10 64 10 52L 10 22C 10 22 10 10 22 10"></path></g></g></g><g id="g-root-tx_institut_zqy0uy1pgcga-stroke" data-item-order="0" transform="translate(393, 399)"></g><g id="g-root-tx_2021_1upb84a1pgef9-stroke" data-item-order="0" transform="translate(219, 231)"></g><g id="g-root-cu_1q5pk2i1zacy4-stroke" data-item-order="0" transform="translate(285, 183)"><g id="cu_1q5pk2i1zacy4-stroke" fill="none" stroke-linecap="round" stroke-linejoin="round" stroke-miterlimit="4" stroke="#b7b7b7" stroke-width="2" stroke-dasharray="5.0, 7.0"><g><path d="M 28 10L 28 22L 28 94C 28.000002 100.627415 22.627419 105.999998 16.000002 105.999998L 15.9 106L 10 106"></path></g></g></g><g id="g-root-cu_vagq8q1z8xza-stroke" data-item-order="0" transform="translate(327, 156)"><g id="cu_vagq8q1z8xza-stroke" fill="none" stroke-linecap="round" stroke-linejoin="round" stroke-miterlimit="4" stroke="#b7b7b7" stroke-width="2" stroke-dasharray="5.0, 7.0"><g><path d="M 58 45L 55 45L 54.9 45C 50.422131 44.972593 45.63978 43.214375 41.299999 40C 38.67988 38.118536 36.018569 33.561496 33.999999 27.499999C 31.98143 21.438501 29.320119 16.881461 26.699999 15C 22.360218 11.785625 17.577867 10.027408 13.1 10L 13 10L 10 10"></path></g></g></g><g id="g-root-tx_cotonoub_1qbd5961pgdfy-stroke" data-item-order="0" transform="translate(135, 267)"></g><g id="g-root-cu_djt6u21z8x6p-stroke" data-item-order="0" transform="translate(519, 150)"><g id="cu_djt6u21z8x6p-stroke" fill="none" stroke-linecap="round" stroke-linejoin="round" stroke-miterlimit="4" stroke="#b7b7b7" stroke-width="2" stroke-dasharray="5.0, 7.0"><g><path d="M 10 51L 13 51L 13.1 51C 17.997497 50.986259 23.191603 48.851695 27.700003 45C 30.434671 42.702644 32.750804 37.371862 33.999999 30.5C 35.249193 23.628138 37.565326 18.297356 40.299998 16C 44.808402 12.148305 50.002508 10.013741 54.900003 9.999999L 55 10L 58 10"></path></g></g></g><g id="g-root-tx_parcours_3cvru1zadj8-stroke" data-item-order="0" transform="translate(225, 39)"></g><g id="g-root-tx_20212023_qtflcq1pgf0g-stroke" data-item-order="0" transform="translate(615, 249)"></g><g id="g-root-cu_1qdtq6y1z8zdb-stroke" data-item-order="0" transform="translate(285, 183)"><g id="cu_1qdtq6y1z8zdb-stroke" fill="none" stroke-linecap="round" stroke-linejoin="round" stroke-miterlimit="4" stroke="#b7b7b7" stroke-width="2" stroke-dasharray="5.0, 7.0"><g><path d="M 28 10L 28 22L 28 34L 19 34L 10 34"></path></g></g></g><g id="g-root-cu_i0vn4q1z8ykq-stroke" data-item-order="0" transform="translate(285, 183)"><g id="cu_i0vn4q1z8ykq-stroke" fill="none" stroke-linecap="round" stroke-linejoin="round" stroke-miterlimit="4" stroke="#b7b7b7" stroke-width="2" stroke-dasharray="5.0, 7.0"><g><path d="M 28 10L 28 40L 28 70L 19 70L 10 70"></path></g></g></g><g id="g-root-tx_lillefra_94nh7e1pgcgc-stroke" data-item-order="0" transform="translate(393, 495)"></g><g id="g-root-tx_depuis20_mfhihm1pge17-stroke" data-item-order="0" transform="translate(393, 459)"></g><g id="g-root-cu_v5gxju1zacqt-stroke" data-item-order="0" transform="translate(369, 387)"><g id="cu_v5gxju1zacqt-stroke" fill="none" stroke-linecap="round" stroke-linejoin="round" stroke-miterlimit="4" stroke="#b7b7b7" stroke-width="2" stroke-dasharray="5.0, 7.0"><g><path d="M 10 10L 10 28L 10 46L 19 46L 28 46"></path></g></g></g><g id="g-root-cu_1cu91p61zaej2-stroke" data-item-order="0" transform="translate(591, 177)"><g id="cu_1cu91p61zaej2-stroke" fill="none" stroke-linecap="round" stroke-linejoin="round" stroke-miterlimit="4" stroke="#b7b7b7" stroke-width="2" stroke-dasharray="5.0, 7.0"><g><path d="M 10 10L 10 28L 10 46L 19 46L 28 46"></path></g></g></g><g id="g-root-cu_13z8ije1zacxt-stroke" data-item-order="0" transform="translate(591, 177)"><g id="cu_13z8ije1zacxt-stroke" fill="none" stroke-linecap="round" stroke-linejoin="round" stroke-miterlimit="4" stroke="#b7b7b7" stroke-width="2" stroke-dasharray="5.0, 7.0"><g><path d="M 10 10L 10 52L 10 94L 19 94L 28 94"></path></g></g></g><g id="g-root-cu_qns0621zaeir-stroke" data-item-order="0" transform="translate(591, 177)"><g id="cu_qns0621zaeir-stroke" fill="none" stroke-linecap="round" stroke-linejoin="round" stroke-miterlimit="4" stroke="#b7b7b7" stroke-width="2" stroke-dasharray="5.0, 7.0"><g><path d="M 10 10L 10 25L 10 118C 10.000002 124.627414 15.372585 129.999997 22.000002 129.999997L 22.1 130L 28 130"></path></g></g></g><g id="g-root-tx_complexe_qqb7x61pgdu4-stroke" data-item-order="0" transform="translate(15, 195)"></g><g id="g-root-cu_8cogq1z8yro-stroke" data-item-order="0" transform="translate(447, 291)"><g id="cu_8cogq1z8yro-stroke" fill="none" stroke-linecap="round" stroke-linejoin="round" stroke-miterlimit="4" stroke="#b7b7b7" stroke-width="2" stroke-dasharray="5.0, 7.0"><g><path d="M 10 10L 10 31L 10 52"></path></g></g></g><g id="g-root-cu_hu0f6i1zaebs-stroke" data-item-order="0" transform="translate(369, 387)"><g id="cu_hu0f6i1zaebs-stroke" fill="none" stroke-linecap="round" stroke-linejoin="round" stroke-miterlimit="4" stroke="#b7b7b7" stroke-width="2" stroke-dasharray="5.0, 7.0"><g><path d="M 10 10L 10 52L 10 94L 19 94L 28 94"></path></g></g></g><g id="g-root-tx_courprpa_zp2llm1pgdfz-stroke" data-item-order="0" transform="translate(615, 189)"></g><g id="g-root-tx_cotonoub_1d1s2561pge15-stroke" data-item-order="0" transform="translate(615, 285)"></g><g id="g-root-cu_dete561zabya-stroke" data-item-order="0" transform="translate(369, 387)"><g id="cu_dete561zabya-stroke" fill="none" stroke-linecap="round" stroke-linejoin="round" stroke-miterlimit="4" stroke="#b7b7b7" stroke-width="2" stroke-dasharray="5.0, 7.0"><g><path d="M 10 10L 10 25L 10 118C 10.000002 124.627414 15.372585 129.999997 22.000002 129.999997L 22.1 130L 28 130"></path></g></g></g><g id="g-root-exch_18i7mca1phszw-stroke" data-item-order="1000000000" transform="translate(579, 135)"><g id="exch_18i7mca1phszw-stroke" fill="none" stroke-linecap="round" stroke-linejoin="round" stroke-miterlimit="4" stroke="#cb68f9" stroke-width="2"><g><path d="M 33.125 21.637501L 33.125 28.012501M 39.375 25C 39.375 32.939095 32.939095 39.375 25 39.375C 20.625 39.375 16.137501 36.700001 13.5 33.625M 10.625 25C 10.625 17.060907 17.060907 10.625 25 10.625C 29.375 10.625 33.862499 13.3 36.5 16.375M 30.75 16.375L 36.5 16.375L 36.25 10.625M 19.25 33.625L 13.5 33.625L 13.5 39.375M 24.5375 18.2125L 16.975 21.487499C 16.911425 21.506449 16.867847 21.564911 16.867847 21.631248C 16.867847 21.69759 16.911425 21.75605 16.974998 21.775L 24.5375 24.9125C 24.83449 25.030781 25.16551 25.030781 25.4625 24.9125L 33.125 21.637501L 25.4625 18.2125C 25.16551 18.094219 24.83449 18.094219 24.5375 18.2125ZM 19.375 25.625L 19.375 28.75C 20.951088 30.053669 22.95693 30.722282 25 30.625C 27.04307 30.722282 29.048914 30.053669 30.625 28.75L 30.625 25.625M 33.125 30.387499L 33.125 31.637499"></path></g></g></g><g id="g-root-tx_cycleprp_deume21phrm3-stroke" data-item-order="1000000000" transform="translate(615, 138)"></g><g id="g-root-trai_hznnq21pj6yt-stroke" data-item-order="1000000000" transform="translate(423, 165)"><g id="trai_hznnq21pj6yt-stroke" fill="none" stroke-linecap="round" stroke-linejoin="round" stroke-miterlimit="4" stroke="#b7b7b7" stroke-width="2"><g><path d="M 28.89996 19.099979C 30.9986 19.099979 32.700001 17.3986 32.700001 15.29992C 32.700001 13.201241 30.9986 11.5 28.89996 11.5C 26.801279 11.5 25.099979 13.201241 25.099979 15.29992C 25.099979 17.3986 26.801279 19.099979 28.89996 19.099979ZM 15.29992 26.900021C 17.3986 26.900021 19.099979 25.19866 19.099979 23.099979C 19.099979 21.001301 17.3986 19.299919 15.29992 19.299919C 13.201241 19.299919 11.499938 21.001301 11.499938 23.099979C 11.499938 25.19866 13.201241 26.900021 15.29992 26.900021ZM 42.5 26.900021C 44.598598 26.900021 46.299999 25.19866 46.299999 23.099979C 46.299999 21.001301 44.598598 19.299919 42.5 19.299919C 40.401199 19.299919 38.700001 21.001301 38.700001 23.099979C 38.700001 25.19866 40.401199 26.900021 42.5 26.900021ZM 25.299919 40.700001L 21.09996 40.700001C 19.49996 40.700001 18.49992 38.900002 19.49992 37.5L 27.299919 27.099979C 28.09992 26.099979 29.699921 26.099979 30.5 27.099979L 34.299999 32.099998M 56.5 43.099998L 56.5 47.5M 50.5 46.125L 50.5 53.618C 50.5 53.618 47.5 56.5 43.099998 56.5C 38.700001 56.5 35.5 53.618 35.5 53.618L 35.5 46.125M 10 10M 29.499941 43.099998L 42.900002 49.099998L 56.5 43.099998L 42.900002 37.099998L 29.499941 43.099998Z"></path></g></g></g><g id="g-root-tx_parcours_qtf8pm1pj75w-stroke" data-item-order="1000000000" transform="translate(399, 219)"></g><g id="g-root-tx_baccalau_1luvumy1z8yyz-stroke" data-item-order="1000000000" transform="translate(27, 144)"></g><g id="g-root-4_1unfsuy1pgfey-stroke" data-item-order="1000000000" transform="translate(357, 345)"><g id="4_1unfsuy1pgfey-stroke" fill="none" stroke-linecap="round" stroke-linejoin="round" stroke-miterlimit="4" stroke="#ffe711" stroke-width="2"><g><path d="M 38.661251 38.946251C 37.753548 36.576172 35.467392 35.02079 32.929581 35.046707C 30.391766 35.072628 28.137856 36.674381 27.278749 39.0625M 37.256248 28.955C 37.282631 30.495913 36.475662 31.9312 35.145416 32.709373C 33.815166 33.487545 32.168583 33.487545 30.838337 32.709373C 29.508089 31.9312 28.701122 30.495913 28.727501 28.955M 34.4725 23.70875C 36.484051 24.359247 37.847069 26.232138 37.847504 28.346251M 28.096251 28.955L 28.096251 28.346251C 28.096268 26.108377 29.619925 24.157932 31.79125 23.616251M 26.877501 28.955L 39.0625 28.955M 24.15 32.099998L 23.24 31.091249C 22.880028 30.693302 22.368479 30.466249 21.831875 30.466249C 21.295271 30.466249 20.783722 30.693302 20.42375 31.091249L 19.512501 32.099998C 18.97444 32.694984 18.120354 32.887321 17.379189 32.580421C 16.638023 32.273518 16.169931 31.533691 16.209999 30.732498L 16.280001 29.375C 16.307205 28.839008 16.106165 28.316565 15.726675 27.937075C 15.347184 27.557585 14.82474 27.356544 14.28875 27.383749L 12.93125 27.452499C 12.129374 27.494091 11.388228 27.026127 11.081036 26.28426C 10.773843 25.542391 10.967205 24.687466 11.56375 24.15L 12.5725 23.24C 12.970448 22.880028 13.197501 22.368479 13.197501 21.831875C 13.197501 21.295271 12.970448 20.783722 12.5725 20.42375L 11.56375 19.51375C 10.967737 18.975885 10.774721 18.12114 11.081765 17.379349C 11.388809 16.63756 12.129458 16.169279 12.93125 16.209999L 14.28875 16.280001C 14.824632 16.306808 15.346841 16.10564 15.72624 15.72624C 16.10564 15.346841 16.306808 14.824632 16.280001 14.28875L 16.209999 12.93125C 16.169931 12.130057 16.638023 11.390229 17.379189 11.083327C 18.120354 10.776425 18.97444 10.968766 19.512499 11.56375L 20.42375 12.5725C 20.783722 12.970448 21.295271 13.197501 21.831875 13.197501C 22.368479 13.197501 22.880028 12.970448 23.24 12.5725L 24.15 11.56375C 24.687466 10.967205 25.542391 10.773843 26.28426 11.081036C 27.026127 11.388228 27.494091 12.129374 27.452499 12.93125L 27.383749 14.28875C 27.356544 14.82474 27.557585 15.347184 27.937075 15.726675C 28.316565 16.106165 28.839008 16.307205 29.374998 16.279999L 30.7325 16.209999C 31.53429 16.169279 32.27494 16.63756 32.581985 17.379349C 32.889027 18.12114 32.696011 18.975885 32.099998 19.51375L 31.091249 20.42375M 17.473751 21.831249C 17.473751 24.237831 19.424669 26.188751 21.831251 26.188751C 24.237831 26.188751 26.188751 24.237831 26.188751 21.831251C 26.188751 19.424669 24.237831 17.473751 21.831251 17.473751C 19.424669 17.473751 17.473751 19.424669 17.473751 21.831251M 33.983749 25.88625L 32.108749 25.88625L 31.689999 22.934999C 31.664495 22.754688 31.718903 22.57222 31.838991 22.43532C 31.959078 22.29842 32.132904 22.220705 32.314999 22.2225L 33.785 22.2225C 33.967098 22.220705 34.140923 22.29842 34.261009 22.43532C 34.381096 22.57222 34.435505 22.754688 34.41 22.934999Z"></path></g></g></g><g id="g-root-tx_cycleing_18fpt5m1pgd8h-stroke" data-item-order="1000000000" transform="translate(393, 348)"></g><g id="g-root-acad_1448b8a1z8y6c-stroke" data-item-order="1000000000" transform="translate(285, 141)"><g id="acad_1448b8a1z8y6c-stroke" fill="none" stroke-linecap="round" stroke-linejoin="round" stroke-miterlimit="4" stroke="#4f91fc" stroke-width="2"><g><path d="M 15.924999 28.75L 11.25 32.5C 21.25 31.875 30.625 37.5 33.125 39.375M 33.125 39.375C 28.75 34.375 20 28.125 10.625 28.125L 16.5875 23.125M 33.125 39.375C 31.3125 32.1875 21.25 23.125 13.75 22.5L 25 13.125C 26.272968 13.411442 27.457064 14.003489 28.449999 14.849999M 33.125 39.375C 33.125 39.375 36.875 28.75 23.75 20.625L 31.875 10.625C 39.375 13.75 39.375 24.375 39.375 24.375Z"></path></g></g></g></g></g></svg>