<svg width="310" height="348" viewBox="0 0 310 348" fill="none" xmlns="http://www.w3.org/2000/svg">
<line x1="7.5" y1="221.122" x2="7.5" y2="15.8781" stroke="#F5F5F5" stroke-width="15"/>
<line x1="302.5" y1="221.244" x2="302.5" y2="16" stroke="#F5F5F5" stroke-width="15"/>
<line x1="154.5" y1="347.244" x2="154.5" y2="142" stroke="#F5F5F5" stroke-width="15"/>
<line x1="156.107" y1="199.361" x2="304.107" y2="11.3608" stroke="#F5F5F5" stroke-width="15"/>
<line x1="156.107" y1="147.361" x2="248.891" y2="29.5001" stroke="#F5F5F5" stroke-width="15"/>
<line y1="-7.5" x2="150" y2="-7.5" transform="matrix(-0.61856 -0.785738 -0.785738 0.61856 148 152)" stroke="#F5F5F5" stroke-width="15"/>
<line y1="-7.5" x2="239.266" y2="-7.5" transform="matrix(-0.61856 -0.785738 -0.785738 0.61856 148 204)" stroke="#F5F5F5" stroke-width="15"/>
<path d="M130.455 93V23.1818H154.864C159.727 23.1818 163.739 24.0227 166.898 25.7045C170.057 27.3636 172.409 29.6023 173.955 32.4205C175.5 35.2159 176.273 38.3182 176.273 41.7273C176.273 44.7273 175.739 47.2045 174.67 49.1591C173.625 51.1136 172.239 52.6591 170.511 53.7955C168.807 54.9318 166.955 55.7727 164.955 56.3182V57C167.091 57.1364 169.239 57.8864 171.398 59.25C173.557 60.6136 175.364 62.5682 176.818 65.1136C178.273 67.6591 179 70.7727 179 74.4545C179 77.9545 178.205 81.1023 176.614 83.8977C175.023 86.6932 172.511 88.9091 169.08 90.5455C165.648 92.1818 161.182 93 155.682 93H130.455ZM138.909 85.5H155.682C161.205 85.5 165.125 84.4318 167.443 82.2955C169.784 80.1364 170.955 77.5227 170.955 74.4545C170.955 72.0909 170.352 69.9091 169.148 67.9091C167.943 65.8864 166.227 64.2727 164 63.0682C161.773 61.8409 159.136 61.2273 156.091 61.2273H138.909V85.5ZM138.909 53.8636H154.591C157.136 53.8636 159.432 53.3636 161.477 52.3636C163.545 51.3636 165.182 49.9545 166.386 48.1364C167.614 46.3182 168.227 44.1818 168.227 41.7273C168.227 38.6591 167.159 36.0568 165.023 33.9205C162.886 31.7614 159.5 30.6818 154.864 30.6818H138.909V53.8636Z" fill="#FD5400"/>
</svg>
